<svg xmlns="http://www.w3.org/2000/svg" xmlns:xlink="http://www.w3.org/1999/xlink" version="1.1" width="381pt" height="107.25pt" viewBox="0 0 381 107.25">
<g>
<path transform="matrix(1,0,0,-1,0,107.25)" d="M50.199 60.478H81.195V74.651H50.199Z" fill="#ffffff" fill-rule="evenodd"/>
<path transform="matrix(1,0,0,-1,0,107.25)" stroke-width=".75" stroke-linecap="round" stroke-linejoin="round" fill="none" stroke="#000000" d="M50.199 60.478H81.195V74.651H50.199Z"/>
<text xml:space="preserve" transform="matrix(1 0 -0 1 0 107.25)" font-size="9" font-family="Times New Roman"><tspan y="-64.865" x="56.234 61.23937 66.73693">PLL</tspan></text>
<text xml:space="preserve" transform="matrix(1 0 -0 1 0 107.25)" font-size="5.8491365" font-family="Times New Roman"><tspan y="-63.577" x="72.235">1</tspan></text>
<path transform="matrix(1,0,0,-1,0,107.25)" stroke-width=".25" stroke-linecap="round" stroke-linejoin="round" fill="none" stroke="#000000" d="M45.875 53.392H20.174"/>
<path transform="matrix(1,0,0,-1,0,107.25)" d="M44.338 53.392C44.338 52.543 45.026 51.854 45.875 51.854 46.724 51.854 47.413 52.543 47.413 53.392 47.413 54.241 46.724 54.929 45.875 54.929 45.026 54.929 44.338 54.241 44.338 53.392Z" fill-rule="evenodd"/>
<text xml:space="preserve" transform="matrix(1 0 -0 1 0 107.25)" font-size="7.99992" font-family="Times New Roman,Italic" font-style="italic"><tspan y="-55.905" x="121.17 124.72075 126.94331">clk</tspan></text>
<text xml:space="preserve" transform="matrix(1 0 -0 1 0 107.25)" font-size="5.198976" font-family="Times New Roman,Italic" font-style="italic"><tspan y="-54.761" x="130.5">0</tspan></text>
<path transform="matrix(1,0,0,-1,0,107.25)" stroke-width=".25" stroke-linecap="round" stroke-linejoin="round" fill="none" stroke="#000000" d="M81.308 67.543 139.42 67.565V78.904H153.97"/>
<text xml:space="preserve" transform="matrix(1 0 -0 1 0 107.25)" font-size="7.99992" font-family="Times New Roman,Italic" font-style="italic"><tspan y="-69.669" x="121.69 125.24075 127.46332">clk</tspan></text>
<text xml:space="preserve" transform="matrix(1 0 -0 1 0 107.25)" font-size="5.198976" font-family="Times New Roman,Italic" font-style="italic"><tspan y="-68.525" x="131.02">1</tspan></text>
<path transform="matrix(1,0,0,-1,0,107.25)" stroke-width=".25" stroke-linecap="round" stroke-linejoin="round" fill="none" stroke="#000000" d="M284.36 70.63H345.91"/>
<path transform="matrix(1,0,0,-1,0,107.25)" d="M345.22 73.4 353.53 70.63 345.22 67.86V73.4Z" fill-rule="evenodd"/>
<path transform="matrix(1,0,0,-1,0,107.25)" d="M210.66 59.061H284.361V84.573H210.66Z" fill="#ffffff" fill-rule="evenodd"/>
<path transform="matrix(1,0,0,-1,0,107.25)" stroke-width=".75" stroke-linecap="round" stroke-linejoin="round" fill="none" stroke="#000000" d="M210.66 59.061H284.361V84.573H210.66Z"/>
<text xml:space="preserve" transform="matrix(1 0 -0 1 0 107.25)" font-size="9" font-family="Times New Roman"><tspan y="-74.517" x="228.52 235.01952 239.01415 243.00878 245.50926 252.50975 256.5044 259.00489 263.50489">Decimator</tspan></text>
<text xml:space="preserve" transform="matrix(1 0 -0 1 0 107.25)" font-size="5.999904" font-family="Times New Roman"><tspan y="-63.717" x="219.77">(</tspan></text>
<text xml:space="preserve" transform="matrix(1 0 -0 1 0 107.25)" font-size="5.999904" font-family="Times New Roman"><tspan y="-63.717" x="221.77 226.10305 230.43608">XOR</tspan></text>
<text xml:space="preserve" transform="matrix(1 0 -0 1 0 107.25)" font-size="5.999904" font-family="Times New Roman"><tspan y="-63.717" x="234.44">-</tspan></text>
<text xml:space="preserve" transform="matrix(1 0 -0 1 0 107.25)" font-size="5.999904" font-family="Times New Roman"><tspan y="-63.717" x="236.44 238.10688 241.10697 244.10706">ing </tspan></text>
<text xml:space="preserve" transform="matrix(1 0 -0 1 0 107.25)" font-size="5.999904" font-family="Times New Roman,Italic" font-style="italic"><tspan y="-63.717" x="245.61">K</tspan></text>
<text xml:space="preserve" transform="matrix(1 0 -0 1 0 107.25)" font-size="3.899304" font-family="Times New Roman,Italic" font-style="italic"><tspan y="-62.859" x="249.61">D</tspan></text>
<text xml:space="preserve" transform="matrix(1 0 -0 1 0 107.25)" font-size="5.999904" font-family="Times New Roman,Italic" font-style="italic"><tspan y="-63.717" x="252.42"> </tspan></text>
<text xml:space="preserve" transform="matrix(1 0 -0 1 0 107.25)" font-size="5.999904" font-family="Times New Roman,Italic" font-style="italic"><tspan y="-63.717" x="253.92">s</tspan></text>
<text xml:space="preserve" transform="matrix(1 0 -0 1 0 107.25)" font-size="5.999904" font-family="Times New Roman"><tspan y="-63.717" x="256.26 258.92308 263.59004 266.59013 268.257 270.92005">amples</tspan></text>
<text xml:space="preserve" transform="matrix(1 0 -0 1 0 107.25)" font-size="5.999904" font-family="Times New Roman"><tspan y="-63.717" x="273.25">)</tspan></text>
<text xml:space="preserve" transform="matrix(1 0 -0 1 0 107.25)" font-size="7.99992" font-family="Times New Roman"><tspan y="-73.72" x="286.91 292.2458 295.79655 301.57398 303.57408 307.57417 309.79673 313.7968 316.01939 318.24195 321.7927 324.01527 326.01536 330.01545 334.01554 336.2381 339.35139">Raw digital noise</tspan></text>
<text xml:space="preserve" transform="matrix(1 0 -0 1 0 107.25)" font-size="7.99992" font-family="Times New Roman,Italic" font-style="italic"><tspan y="-56.661" x="22.183 25.733754 27.956322">clk</tspan></text>
<text xml:space="preserve" transform="matrix(1 0 -0 1 0 107.25)" font-size="5.198976" font-family="Times New Roman,Italic" font-style="italic"><tspan y="-55.517" x="31.507 32.951395">in</tspan></text>
<path transform="matrix(1,0,0,-1,0,107.25)" d="M50.24 33.549H81.236V47.722H50.24Z" fill="#ffffff" fill-rule="evenodd"/>
<path transform="matrix(1,0,0,-1,0,107.25)" stroke-width=".75" stroke-linecap="round" stroke-dasharray=".75,1.5" stroke-linejoin="round" fill="none" stroke="#000000" d="M50.24 33.549H81.236V47.722H50.24Z"/>
<text xml:space="preserve" transform="matrix(1 0 -0 1 0 107.25)" font-size="9" font-family="Times New Roman"><tspan y="-37.936" x="56.276 61.28137 66.77893">PLL</tspan></text>
<text xml:space="preserve" transform="matrix(1 0 -0 1 0 107.25)" font-size="5.8491365" font-family="Times New Roman"><tspan y="-36.648" x="72.276">0</tspan></text>
<path transform="matrix(1,0,0,-1,0,107.25)" stroke-width=".24" stroke-linecap="round" stroke-linejoin="round" fill="none" stroke="#000000" d="M50.199 67.565H45.875V40.636H50.24"/>
<path transform="matrix(1,0,0,-1,0,107.25)" stroke-width=".24" stroke-linecap="round" stroke-linejoin="round" fill="none" stroke="#000000" d="M81.236 40.636H95.481"/>
<path transform="matrix(1,0,0,-1,0,107.25)" d="M93.951 40.636C93.951 39.791 94.636 39.106 95.481 39.106 96.326 39.106 97.011 39.791 97.011 40.636 97.011 41.481 96.326 42.166 95.481 42.166 94.636 42.166 93.951 41.481 93.951 40.636Z" fill-rule="evenodd"/>
<path transform="matrix(1,0,0,-1,0,107.25)" stroke-width=".24" stroke-linecap="round" stroke-linejoin="round" fill="none" stroke="#000000" d="M45.875 53.392H95.481V45.951"/>
<path transform="matrix(1,0,0,-1,0,107.25)" d="M95.481 47.481C94.636 47.481 93.951 46.796 93.951 45.951 93.951 45.106 94.636 44.421 95.481 44.421 96.326 44.421 97.011 45.106 97.011 45.951 97.011 46.796 96.326 47.481 95.481 47.481Z" fill-rule="evenodd"/>
<path transform="matrix(1,0,0,-1,0,107.25)" stroke-width="1.5" stroke-linecap="round" stroke-linejoin="round" fill="none" stroke="#000000" d="M95.481 45.951 102.57 43.47"/>
<path transform="matrix(1,0,0,-1,0,107.25)" d="M153.97 59.061H176.647V84.573H153.97Z" fill="#ffffff" fill-rule="evenodd"/>
<path transform="matrix(1,0,0,-1,0,107.25)" stroke-width=".75" stroke-linecap="round" stroke-linejoin="round" fill="none" stroke="#000000" d="M153.97 59.061H176.647V84.573H153.97Z"/>
<text xml:space="preserve" transform="matrix(1 0 -0 1 0 107.25)" font-size="9" font-family="Times New Roman"><tspan y="-69.117" x="157.05 163.54952 168.55489">DFF</tspan></text>
<path transform="matrix(1,0,0,-1,0,107.25)" stroke-width=".24" stroke-linecap="round" stroke-linejoin="round" fill="none" stroke="#000000" d="M153.93 67.301 156.8 64.697 153.93 61.896"/>
<path transform="matrix(1,0,0,-1,0,107.25)" stroke-width=".25" stroke-linecap="round" stroke-linejoin="round" fill="none" stroke="#000000" d="M176.84 78.904H210.66"/>
<path transform="matrix(1,0,0,-1,0,107.25)" stroke-width=".24" stroke-linecap="round" stroke-linejoin="round" fill="none" stroke="#000000" d="M210.64 67.301 213.51 64.697 210.64 61.896"/>
<path transform="matrix(1,0,0,-1,0,107.25)" stroke-width=".24" stroke-linecap="round" stroke-linejoin="round" fill="none" stroke="#000000" d="M153.97 64.73H148.3V53.392"/>
<path transform="matrix(1,0,0,-1,0,107.25)" d="M148.3 54.922C147.46 54.922 146.77 54.237 146.77 53.392 146.77 52.547 147.46 51.862 148.3 51.862 149.15 51.862 149.83 52.547 149.83 53.392 149.83 54.237 149.15 54.922 148.3 54.922Z" fill-rule="evenodd"/>
<path transform="matrix(1,0,0,-1,0,107.25)" d="M125.62 19.659H185.14801V45.170999H125.62Z" fill="#ffffff" fill-rule="evenodd"/>
<path transform="matrix(1,0,0,-1,0,107.25)" stroke-width=".75" stroke-linecap="round" stroke-linejoin="round" fill="none" stroke="#000000" d="M125.62 19.659H185.14801V45.170999H125.62Z"/>
<text xml:space="preserve" transform="matrix(1 0 -0 1 0 107.25)" font-size="9" font-family="Times New Roman"><tspan y="-35.115" x="128.53">T</tspan></text>
<text xml:space="preserve" transform="matrix(1 0 -0 1 0 107.25)" font-size="9" font-family="Times New Roman"><tspan y="-35.115" x="134.02">-</tspan></text>
<text xml:space="preserve" transform="matrix(1 0 -0 1 0 107.25)" font-size="9" font-family="Times New Roman"><tspan y="-35.115" x="137.02 141.52 145.51464 149.01708 153.0117 155.2617 159.25634 163.75634 168.25634 172.75634 175.25682 179.25145">base counter</tspan></text>
<text xml:space="preserve" transform="matrix(1 0 -0 1 0 107.25)" font-size="5.999904" font-family="Times New Roman"><tspan y="-24.316" x="145.09">(</tspan></text>
<text xml:space="preserve" transform="matrix(1 0 -0 1 0 107.25)" font-size="5.999904" font-family="Times New Roman,Italic" font-style="italic"><tspan y="-24.316" x="147.08">K</tspan></text>
<text xml:space="preserve" transform="matrix(1 0 -0 1 0 107.25)" font-size="3.899304" font-family="Times New Roman,Italic" font-style="italic"><tspan y="-23.457" x="151.09">D</tspan></text>
<text xml:space="preserve" transform="matrix(1 0 -0 1 0 107.25)" font-size="5.999904" font-family="Times New Roman,Italic" font-style="italic"><tspan y="-24.316" x="153.9"> </tspan></text>
<text xml:space="preserve" transform="matrix(1 0 -0 1 0 107.25)" font-size="5.999904" font-family="Times New Roman,Italic" font-style="italic"><tspan y="-24.316" x="155.4">&#x00b7;</tspan></text>
<text xml:space="preserve" transform="matrix(1 0 -0 1 0 107.25)" font-size="5.999904" font-family="Times New Roman,Italic" font-style="italic"><tspan y="-24.316" x="156.9"> </tspan></text>
<text xml:space="preserve" transform="matrix(1 0 -0 1 0 107.25)" font-size="5.999904" font-family="Times New Roman,Italic" font-style="italic"><tspan y="-24.316" x="158.4">T</tspan></text>
<text xml:space="preserve" transform="matrix(1 0 -0 1 0 107.25)" font-size="3.899304" font-family="Times New Roman"><tspan y="-23.457" x="161.74">0</tspan></text>
<text xml:space="preserve" transform="matrix(1 0 -0 1 0 107.25)" font-size="5.999904" font-family="Times New Roman"><tspan y="-24.316" x="163.69">)</tspan></text>
<path transform="matrix(1,0,0,-1,0,107.25)" stroke-width=".24" stroke-linecap="round" stroke-linejoin="round" fill="none" stroke="#000000" d="M102.57 43.47H117.12V53.392H199.32V64.73H210.66"/>
<path transform="matrix(1,0,0,-1,0,107.25)" d="M104.1 43.47C104.1 44.315 103.41 45 102.57 45 101.72 45 101.04 44.315 101.04 43.47 101.04 42.625 101.72 41.94 102.57 41.94 103.41 41.94 104.1 42.625 104.1 43.47Z" fill-rule="evenodd"/>
<path transform="matrix(1,0,0,-1,0,107.25)" stroke-width=".24" stroke-linecap="round" stroke-linejoin="round" fill="none" stroke="#000000" d="M117.12 43.47V27.88H125.62"/>
<path transform="matrix(1,0,0,-1,0,107.25)" d="M117.12 41.94C117.96 41.94 118.65 42.625 118.65 43.47 118.65 44.315 117.96 45 117.12 45 116.27 45 115.59 44.315 115.59 43.47 115.59 42.625 116.27 41.94 117.12 41.94Z" fill-rule="evenodd"/>
<path transform="matrix(1,0,0,-1,0,107.25)" stroke-width=".24" stroke-linecap="round" stroke-linejoin="round" fill="none" stroke="#000000" d="M125.59 30.583 128.46 27.978 125.59 25.177"/>
<path transform="matrix(1,0,0,-1,0,107.25)" stroke-width=".24" stroke-linecap="round" stroke-linejoin="round" fill="none" stroke="#000000" d="M185.15 32.415H193.65V72.1H210.66"/>
<text xml:space="preserve" transform="matrix(1 0 -0 1 0 107.25)" font-size="7.99992" font-family="Times New Roman,Italic" font-style="italic"><tspan y="-81.25" x="188.45">s</tspan></text>
<text xml:space="preserve" transform="matrix(1 0 -0 1 0 107.25)" font-size="5.198976" font-family="Times New Roman,Italic" font-style="italic"><tspan y="-80.105" x="191.56">i</tspan></text>
</g>
</svg>
